<svg id="Layer_1" xmlns="http://www.w3.org/2000/svg" viewBox="0 0 500 200"><style>.st0{fill:#fff}</style><path class="st0" d="M65.9 101.2c3 2.4 4.5 6.1 4.5 11.3 0 5-1.9 8.8-5.7 11.5-3.8 2.7-8.4 4-13.9 4-3.4 0-6.6-.5-9.5-1.4-2.9-1-5.3-2.3-7.2-4.1v4.2h-9.2v-17.6h8.4l.5 5.5c1.6 1.8 3.7 3.1 6.2 4.1 2.6 1 5.2 1.4 8 1.4 3 0 5.4-.6 7.3-1.8 1.9-1.2 2.8-2.8 2.8-4.8 0-2.3-.8-3.9-2.4-4.9-1.6-1-4.4-2-8.5-2.8l-6.3-1.5c-5.6-1.3-9.7-3.1-12.3-5.5-2.6-2.3-3.9-5.8-3.9-10.3 0-4.7 1.8-8.5 5.3-11.2 3.6-2.7 8.2-4.1 14-4.1 2.7 0 5.4.4 8.1 1.2 2.7.8 4.9 1.9 6.6 3.3v-3.3H68v17.4h-8.4l-.6-6.1c-1.4-1.3-3.2-2.4-5.5-3.2-2.3-.8-4.6-1.2-6.8-1.2-2.6 0-4.8.5-6.6 1.6-1.8 1.1-2.7 2.7-2.7 4.7 0 1.8.7 3.1 2 4 1.4.9 3.6 1.8 6.6 2.6l6.3 1.3c6.1 1.5 10.6 3.4 13.6 5.7zM78.8 126.8v-8.6h8.9v-35h-8.8v-8.5h21.8v43.5h8.4v8.6H78.8zm8-65.1c-1.6-1.5-2.4-3.5-2.4-5.9 0-2.4.8-4.3 2.4-5.9 1.6-1.5 3.7-2.3 6.1-2.3s4.5.8 6.1 2.3c1.6 1.5 2.4 3.5 2.4 5.9 0 2.4-.8 4.3-2.4 5.9-1.6 1.5-3.7 2.3-6.1 2.3s-4.5-.7-6.1-2.3zM122.9 111.4V83.2H115v-8.5h7.9V57.3l13.2-3.6v20.9h13v8.5h-13v26.7c0 3 .5 5.1 1.5 6.3 1 1.2 2.7 1.8 5.2 1.8h7.2v8.7h-11.4c-10.5.2-15.7-5-15.7-15.2zM210.6 103.2h-40.5c.6 4.7 2.5 8.4 5.5 11.1 3.1 2.7 6.9 4 11.6 4 3.5 0 6.9-.7 10.1-2 3.2-1.3 6-3.1 8.5-5.4l4.1 7.9c-2.7 2.8-6.1 5.1-10 6.8-3.9 1.7-8.3 2.6-13.2 2.6-5.7 0-10.8-1.1-15.3-3.4-4.5-2.2-8-5.4-10.5-9.6-2.5-4.2-3.8-9-3.8-14.5 0-5.4 1.2-10.2 3.6-14.3 2.4-4.1 5.7-7.3 9.9-9.6s8.9-3.4 14.2-3.4c8 0 14.3 2.5 18.9 7.4 4.6 4.9 6.9 11.4 6.9 19.5v2.9zm-12.5-6.9c0-4.3-1.2-7.7-3.7-10.2-2.5-2.5-5.7-3.7-9.7-3.7-3.9 0-7.2 1.3-9.9 3.7-2.6 2.5-4.2 5.9-4.7 10.2h28zM218.1 126.8v-8.6h8.7v-59h-8.4v-8.4h21.4v67.5h7.8v8.6h-29.5zM267.2 124.8c-4.3-2.3-7.6-5.5-9.9-9.7-2.4-4.2-3.6-9-3.6-14.4s1.2-10.2 3.6-14.4c2.4-4.2 5.7-7.4 9.9-9.6 4.2-2.2 9.2-3.4 14.8-3.4s10.6 1.1 14.9 3.4c4.3 2.2 7.7 5.4 10.1 9.5 2.4 4.1 3.6 8.9 3.6 14.3s-1.2 10.3-3.6 14.5c-2.4 4.2-5.7 7.5-10.1 9.7-4.3 2.3-9.3 3.4-14.9 3.4s-10.5-1-14.8-3.3zm26.4-11.4c2.8-3.2 4.2-7.5 4.2-12.8 0-5.3-1.4-9.4-4.3-12.6-2.9-3.1-6.7-4.7-11.5-4.7-4.7 0-8.5 1.6-11.3 4.7-2.8 3.1-4.2 7.3-4.2 12.7 0 5.4 1.4 9.6 4.3 12.8 2.8 3.2 6.7 4.7 11.5 4.7 4.7 0 8.5-1.6 11.3-4.8zM381.3 74.7v8.5h-8v43.4c0 8.4-2.5 14.7-7.4 18.9-4.9 4.2-11.6 6.2-20 6.2-6.6 0-13.5-1.2-20.8-3.5l2.2-9.1c6.6 2 12.3 3 17.1 3 5.1 0 9-1.2 11.7-3.6 2.7-2.4 4.1-5.9 4.1-10.7V122c-4.8 3.6-10.3 5.4-16.4 5.4-5 0-9.4-1.1-13.3-3.3-3.9-2.2-7-5.3-9.2-9.3-2.2-4-3.4-8.8-3.4-14.3s1.1-10.3 3.3-14.4c2.2-4.1 5.2-7.2 9.1-9.3 3.9-2.1 8.3-3.2 13.3-3.2 3 0 6 .5 9.1 1.6 3.1 1.1 5.7 2.5 7.9 4.3v-4.7h20.7zm-45.4 38.6c3 3 6.8 4.5 11.4 4.5 4.6 0 8.9-1.4 12.9-4.2l-.1-26c-4.5-3.1-9-4.6-13.5-4.6-4.6 0-8.2 1.6-11 4.7-2.8 3.2-4.1 7.5-4.1 13.1 0 5.4 1.4 9.6 4.4 12.5zM386 126.8v-8.6h8.9v-35h-8.8v-8.5H408v43.5h8.4v8.6H386zm8-65.1c-1.6-1.5-2.4-3.5-2.4-5.9 0-2.4.8-4.3 2.4-5.9 1.6-1.5 3.7-2.3 6.1-2.3 2.5 0 4.5.8 6.1 2.3 1.6 1.5 2.4 3.5 2.4 5.9 0 2.4-.8 4.3-2.4 5.9-1.6 1.5-3.7 2.3-6.1 2.3-2.4 0-4.5-.7-6.1-2.3zM476 117.7c-6.1 6.9-14.2 10.4-24.3 10.4-5.6 0-10.6-1.2-14.9-3.6-4.3-2.4-7.7-5.7-10.2-9.9-2.5-4.2-3.7-9-3.7-14.3 0-5.3 1.2-9.9 3.5-14s5.5-7.3 9.6-9.5c4.1-2.3 8.7-3.4 13.7-3.4 3.6 0 6.8.6 9.5 1.8 2.8 1.2 5 2.9 6.6 5v-5.7h9.7v19.7h-8.9c-.7-3.7-2.3-6.5-4.7-8.5-2.5-2-5.6-3-9.5-3-4.9 0-8.9 1.6-12 4.8-3.1 3.2-4.7 7.3-4.7 12.3 0 5.4 1.6 9.8 4.9 13.2 3.2 3.4 7.5 5.1 12.8 5.1 3.9 0 7.2-.7 10-2.1 2.8-1.4 5.5-3.5 8-6.2l4.6 7.9z"/></svg>